<svg width="20" height="20" viewBox="0 0 20 20" fill="none" xmlns="http://www.w3.org/2000/svg">
<path d="M10 2C10.7344 2 11.4427 2.09375 12.125 2.28125C12.8073 2.46875 13.4453 2.73698 14.0391 3.08594C14.6328 3.4349 15.1719 3.85156 15.6562 4.33594C16.1406 4.82031 16.5573 5.36198 16.9062 5.96094C17.2552 6.5599 17.5234 7.19792 17.7109 7.875C17.8984 8.55208 17.9948 9.26042 18 10C18 10.7344 17.9062 11.4427 17.7188 12.125C17.5312 12.8073 17.263 13.4453 16.9141 14.0391C16.5651 14.6328 16.1484 15.1719 15.6641 15.6562C15.1797 16.1406 14.638 16.5573 14.0391 16.9062C13.4401 17.2552 12.8021 17.5234 12.125 17.7109C11.4479 17.8984 10.7396 17.9948 10 18C9.26562 18 8.55729 17.9062 7.875 17.7188C7.19271 17.5312 6.55469 17.263 5.96094 16.9141C5.36719 16.5651 4.82812 16.1484 4.34375 15.6641C3.85938 15.1797 3.44271 14.638 3.09375 14.0391C2.74479 13.4401 2.47656 12.8047 2.28906 12.1328C2.10156 11.4609 2.00521 10.75 2 10C2 9.26562 2.09375 8.55729 2.28125 7.875C2.46875 7.19271 2.73698 6.55469 3.08594 5.96094C3.4349 5.36719 3.85156 4.82812 4.33594 4.34375C4.82031 3.85938 5.36198 3.44271 5.96094 3.09375C6.5599 2.74479 7.19531 2.47656 7.86719 2.28906C8.53906 2.10156 9.25 2.00521 10 2ZM16.3203 7C16.1224 6.57812 15.8828 6.18229 15.6016 5.8125C15.3203 5.44271 15.0078 5.10156 14.6641 4.78906C14.3203 4.47656 13.9479 4.20312 13.5469 3.96875C13.1458 3.73438 12.7266 3.53906 12.2891 3.38281C12.4766 3.64323 12.6458 3.91927 12.7969 4.21094C12.9479 4.5026 13.0807 4.80208 13.1953 5.10938C13.3099 5.41667 13.4115 5.73177 13.5 6.05469C13.5885 6.3776 13.6615 6.69271 13.7188 7H16.3203ZM17 10C17 9.30729 16.9036 8.64062 16.7109 8H13.875C13.9167 8.33333 13.9479 8.66406 13.9688 8.99219C13.9896 9.32031 14 9.65625 14 10C14 10.3385 13.9896 10.6719 13.9688 11C13.9479 11.3281 13.9167 11.6615 13.875 12H16.7109C16.9036 11.3594 17 10.6927 17 10ZM10 17C10.2552 17 10.4922 16.9297 10.7109 16.7891C10.9297 16.6484 11.1354 16.4635 11.3281 16.2344C11.5208 16.0052 11.6875 15.7474 11.8281 15.4609C11.9688 15.1745 12.1016 14.8802 12.2266 14.5781C12.3516 14.276 12.4479 13.9896 12.5156 13.7188C12.5833 13.4479 12.6432 13.2083 12.6953 13H7.30469C7.34635 13.2031 7.40625 13.4427 7.48438 13.7188C7.5625 13.9948 7.65885 14.2812 7.77344 14.5781C7.88802 14.875 8.01823 15.1667 8.16406 15.4531C8.3099 15.7396 8.47917 16 8.67188 16.2344C8.86458 16.4688 9.06771 16.6536 9.28125 16.7891C9.49479 16.9245 9.73438 16.9948 10 17ZM12.8672 12C12.9089 11.6667 12.9401 11.3359 12.9609 11.0078C12.9818 10.6797 12.9948 10.3438 13 10C13 9.66146 12.9896 9.32812 12.9688 9C12.9479 8.67188 12.9141 8.33854 12.8672 8H7.13281C7.09115 8.33333 7.0599 8.66406 7.03906 8.99219C7.01823 9.32031 7.00521 9.65625 7 10C7 10.3385 7.01042 10.6719 7.03125 11C7.05208 11.3281 7.08594 11.6615 7.13281 12H12.8672ZM3 10C3 10.6927 3.09635 11.3594 3.28906 12H6.125C6.08333 11.6667 6.05208 11.3359 6.03125 11.0078C6.01042 10.6797 6 10.3438 6 10C6 9.66146 6.01042 9.32812 6.03125 9C6.05208 8.67188 6.08333 8.33854 6.125 8H3.28906C3.09635 8.64062 3 9.30729 3 10ZM10 3C9.74479 3 9.50781 3.07031 9.28906 3.21094C9.07031 3.35156 8.86458 3.53646 8.67188 3.76562C8.47917 3.99479 8.3125 4.2526 8.17188 4.53906C8.03125 4.82552 7.89844 5.11979 7.77344 5.42188C7.64844 5.72396 7.55208 6.01042 7.48438 6.28125C7.41667 6.55208 7.35677 6.79167 7.30469 7H12.6953C12.6536 6.79688 12.5938 6.55729 12.5156 6.28125C12.4375 6.00521 12.3411 5.71875 12.2266 5.42188C12.112 5.125 11.9818 4.83333 11.8359 4.54688C11.6901 4.26042 11.5208 4 11.3281 3.76562C11.1354 3.53125 10.9323 3.34635 10.7188 3.21094C10.5052 3.07552 10.2656 3.00521 10 3ZM7.71094 3.38281C7.27344 3.53385 6.85417 3.72917 6.45312 3.96875C6.05208 4.20833 5.67969 4.48177 5.33594 4.78906C4.99219 5.09635 4.67969 5.4349 4.39844 5.80469C4.11719 6.17448 3.8776 6.57292 3.67969 7H6.28125C6.34375 6.6875 6.41667 6.3724 6.5 6.05469C6.58333 5.73698 6.68229 5.42448 6.79688 5.11719C6.91146 4.8099 7.04688 4.50781 7.20312 4.21094C7.35938 3.91406 7.52865 3.63802 7.71094 3.38281ZM3.67969 13C3.8776 13.4219 4.11719 13.8177 4.39844 14.1875C4.67969 14.5573 4.99219 14.8984 5.33594 15.2109C5.67969 15.5234 6.05208 15.7969 6.45312 16.0312C6.85417 16.2656 7.27344 16.4609 7.71094 16.6172C7.52344 16.3568 7.35417 16.0807 7.20312 15.7891C7.05208 15.4974 6.91927 15.1979 6.80469 14.8906C6.6901 14.5833 6.58854 14.2682 6.5 13.9453C6.41146 13.6224 6.33854 13.3073 6.28125 13H3.67969ZM12.2891 16.6172C12.7266 16.4661 13.1458 16.2708 13.5469 16.0312C13.9479 15.7917 14.3203 15.5182 14.6641 15.2109C15.0078 14.9036 15.3203 14.5651 15.6016 14.1953C15.8828 13.8255 16.1224 13.4271 16.3203 13H13.7188C13.6562 13.3125 13.5833 13.6276 13.5 13.9453C13.4167 14.263 13.3177 14.5755 13.2031 14.8828C13.0885 15.1901 12.9531 15.4922 12.7969 15.7891C12.6406 16.0859 12.4714 16.362 12.2891 16.6172Z" fill="white"/>
</svg>
