<svg width="20" height="20" viewBox="0 0 20 20" fill="none" xmlns="http://www.w3.org/2000/svg">
<path d="M6.81112 6.11106C6.81112 4.34905 8.238 2.92217 10 2.92217C11.762 2.92217 13.1889 4.34904 13.1889 6.11106C13.1889 7.87307 11.762 9.29995 10 9.29995C8.238 9.29995 6.81112 7.87307 6.81112 6.11106ZM2.92223 14.8611C2.92223 14.4716 3.11175 14.0787 3.54723 13.6768C3.98746 13.2705 4.63073 12.904 5.39799 12.5966C6.93364 11.9814 8.7896 11.6722 10 11.6722C11.2104 11.6722 13.0664 11.9814 14.602 12.5966C15.3693 12.904 16.0126 13.2705 16.4528 13.6768C16.8883 14.0787 17.0778 14.4716 17.0778 14.8611V17.0777H2.92223V14.8611Z" stroke="white" stroke-width="1.4"/>
</svg>
