<svg width="20" height="20" viewBox="0 0 20 20" fill="none" xmlns="http://www.w3.org/2000/svg">
<path d="M16.3058 7.775C16.7169 7.95833 17.0869 8.18333 17.4157 8.45C17.7446 8.71667 18.0292 9.01667 18.2695 9.35C18.5099 9.68333 18.6901 10.0389 18.8103 10.4167C18.9304 10.7944 18.9937 11.1889 19 11.6H17.7857C17.7857 11.1611 17.6908 10.7472 17.5011 10.3583C17.3114 9.96944 17.0489 9.63056 16.7137 9.34167C16.3785 9.05278 15.9927 8.825 15.5564 8.65833C15.12 8.49167 14.6488 8.40556 14.1429 8.4C13.6432 8.4 13.1721 8.48333 12.7294 8.65C12.2866 8.81667 11.9009 9.04722 11.572 9.34167C11.2431 9.63611 10.9838 9.975 10.7941 10.3583C10.6044 10.7417 10.5063 11.1556 10.5 11.6C10.5 12.1056 10.3703 12.5861 10.111 13.0417C9.85175 13.4972 9.4881 13.875 9.02009 14.175C9.43118 14.3583 9.80115 14.5833 10.13 14.85C10.4589 15.1167 10.7435 15.4167 10.9838 15.75C11.2241 16.0833 11.4044 16.4389 11.5246 16.8167C11.6447 17.1944 11.708 17.5889 11.7143 18H10.5C10.5 17.5611 10.4051 17.1472 10.2154 16.7583C10.0257 16.3694 9.76321 16.0306 9.42801 15.7417C9.09282 15.4528 8.70703 15.225 8.27065 15.0583C7.83426 14.8917 7.3631 14.8056 6.85714 14.8C6.35751 14.8 5.88635 14.8833 5.44364 15.05C5.00093 15.2167 4.61514 15.4472 4.28627 15.7417C3.9574 16.0361 3.6981 16.375 3.50837 16.7583C3.31864 17.1417 3.22061 17.5556 3.21429 18H2C2 17.5944 2.06324 17.2028 2.18973 16.825C2.31622 16.4472 2.49647 16.0917 2.73047 15.7583C2.96447 15.425 3.24591 15.125 3.57478 14.8583C3.90365 14.5917 4.27679 14.3639 4.6942 14.175C4.23251 13.875 3.87202 13.4972 3.61272 13.0417C3.35342 12.5861 3.22061 12.1056 3.21429 11.6C3.21429 11.1611 3.30915 10.7472 3.49888 10.3583C3.68862 9.96944 3.95108 9.63056 4.28627 9.34167C4.62147 9.05278 5.00725 8.825 5.44364 8.65833C5.88002 8.49167 6.35119 8.40556 6.85714 8.4C7.43266 8.4 7.97972 8.51389 8.49833 8.74167C9.01693 8.96944 9.44699 9.28889 9.7885 9.7C10.0288 9.28333 10.3356 8.91111 10.7087 8.58333C11.0818 8.25556 11.5056 7.98611 11.9799 7.775C11.5182 7.475 11.1577 7.09722 10.8984 6.64167C10.6391 6.18611 10.5063 5.70556 10.5 5.2C10.5 4.76111 10.5949 4.34722 10.7846 3.95833C10.9743 3.56944 11.2368 3.23056 11.572 2.94167C11.9072 2.65278 12.293 2.425 12.7294 2.25833C13.1657 2.09167 13.6369 2.00556 14.1429 2C14.6425 2 15.1137 2.08333 15.5564 2.25C15.9991 2.41667 16.3849 2.64722 16.7137 2.94167C17.0426 3.23611 17.3019 3.575 17.4916 3.95833C17.6814 4.34167 17.7794 4.75556 17.7857 5.2C17.7857 5.70556 17.6561 6.18611 17.3968 6.64167C17.1375 7.09722 16.7738 7.475 16.3058 7.775ZM6.85714 13.7333C7.18601 13.7333 7.49907 13.6778 7.79632 13.5667C8.09356 13.4556 8.3497 13.3028 8.56473 13.1083C8.77976 12.9139 8.95368 12.6889 9.0865 12.4333C9.21931 12.1778 9.28571 11.9 9.28571 11.6C9.28571 11.3111 9.22247 11.0361 9.09598 10.775C8.96949 10.5139 8.79557 10.2889 8.57422 10.1C8.35286 9.91111 8.09356 9.75833 7.79632 9.64167C7.49907 9.525 7.18601 9.46667 6.85714 9.46667C6.52195 9.46667 6.20889 9.52222 5.91797 9.63333C5.62705 9.74444 5.37091 9.89722 5.14955 10.0917C4.9282 10.2861 4.75428 10.5139 4.62779 10.775C4.5013 11.0361 4.4349 11.3111 4.42857 11.6C4.42857 11.8944 4.49182 12.1694 4.6183 12.425C4.74479 12.6806 4.91871 12.9056 5.14007 13.1C5.36142 13.2944 5.61756 13.4472 5.90848 13.5583C6.1994 13.6694 6.51562 13.7278 6.85714 13.7333ZM11.7143 5.2C11.7143 5.49444 11.7775 5.76944 11.904 6.025C12.0305 6.28056 12.2044 6.50556 12.4258 6.7C12.6471 6.89444 12.9033 7.04722 13.1942 7.15833C13.4851 7.26944 13.8013 7.32778 14.1429 7.33333C14.4717 7.33333 14.7848 7.27778 15.082 7.16667C15.3793 7.05556 15.6354 6.90278 15.8504 6.70833C16.0655 6.51389 16.2394 6.28889 16.3722 6.03333C16.505 5.77778 16.5714 5.5 16.5714 5.2C16.5714 4.91111 16.5082 4.63611 16.3817 4.375C16.2552 4.11389 16.0813 3.88889 15.8599 3.7C15.6386 3.51111 15.3793 3.35833 15.082 3.24167C14.7848 3.125 14.4717 3.06667 14.1429 3.06667C13.8077 3.06667 13.4946 3.12222 13.2037 3.23333C12.9128 3.34444 12.6566 3.49722 12.4353 3.69167C12.2139 3.88611 12.04 4.11389 11.9135 4.375C11.787 4.63611 11.7206 4.91111 11.7143 5.2Z" fill="white"/>
</svg>
