<svg width="20" height="20" viewBox="0 0 20 20" fill="none" xmlns="http://www.w3.org/2000/svg">
<path d="M11.8779 9.5166L11.3965 10.4712C10.9538 10.1558 10.4779 9.91504 9.96875 9.74902C9.45964 9.58301 8.92839 9.5 8.375 9.5C7.88802 9.5 7.41764 9.56364 6.96387 9.69092C6.51009 9.8182 6.08675 9.99528 5.69385 10.2222C5.30094 10.4491 4.94401 10.7257 4.62305 11.0522C4.30208 11.3787 4.02539 11.7384 3.79297 12.1313C3.56055 12.5243 3.3807 12.9476 3.25342 13.4014C3.12614 13.8551 3.0625 14.3255 3.0625 14.8125H2C2 14.1484 2.09684 13.5093 2.29053 12.895C2.48421 12.2808 2.76367 11.7135 3.12891 11.1934C3.49414 10.6732 3.92578 10.2111 4.42383 9.80713C4.92188 9.40316 5.48633 9.08496 6.11719 8.85254C5.49186 8.44303 5.00488 7.92839 4.65625 7.30859C4.30762 6.6888 4.13053 6.0026 4.125 5.25C4.125 4.66341 4.23568 4.11279 4.45703 3.59814C4.67839 3.0835 4.97998 2.63249 5.36182 2.24512C5.74365 1.85775 6.19466 1.55339 6.71484 1.33203C7.23503 1.11068 7.78841 1 8.375 1C8.96159 1 9.51221 1.11068 10.0269 1.33203C10.5415 1.55339 10.9925 1.85498 11.3799 2.23682C11.7673 2.61865 12.0716 3.06966 12.293 3.58984C12.5143 4.11003 12.625 4.66341 12.625 5.25C12.625 5.61523 12.5807 5.97217 12.4922 6.3208C12.4036 6.66943 12.2708 6.9987 12.0938 7.30859C11.9167 7.61849 11.7064 7.90625 11.4629 8.17188C11.2194 8.4375 10.9399 8.66716 10.6245 8.86084C10.8459 8.94938 11.0617 9.04622 11.272 9.15137C11.4823 9.25651 11.6842 9.37826 11.8779 9.5166ZM5.1875 5.25C5.1875 5.69271 5.27051 6.10498 5.43652 6.48682C5.60254 6.86865 5.82943 7.20622 6.11719 7.49951C6.40495 7.79281 6.74251 8.02246 7.12988 8.18848C7.51725 8.35449 7.93229 8.4375 8.375 8.4375C8.81217 8.4375 9.22445 8.35449 9.61182 8.18848C9.99919 8.02246 10.3368 7.79557 10.6245 7.50781C10.9123 7.22005 11.1419 6.88249 11.3135 6.49512C11.485 6.10775 11.568 5.69271 11.5625 5.25C11.5625 4.81283 11.4795 4.40055 11.3135 4.01318C11.1475 3.62581 10.9206 3.28825 10.6328 3.00049C10.3451 2.71273 10.0047 2.48307 9.61182 2.31152C9.21891 2.13997 8.80664 2.05697 8.375 2.0625C7.93229 2.0625 7.52002 2.14551 7.13818 2.31152C6.75635 2.47754 6.41878 2.70443 6.12549 2.99219C5.83219 3.27995 5.60254 3.62028 5.43652 4.01318C5.27051 4.40609 5.1875 4.81836 5.1875 5.25ZM16.7671 10.5625H19L13.4219 18H11.2305L13.3555 13.75H11.2305L14.4429 7.375H18.7427L16.7671 10.5625ZM13.0815 16.6885L16.875 11.625H14.8579L16.8335 8.4375H15.0986L12.957 12.6875H15.082L13.0815 16.6885Z" fill="white" stroke="white" stroke-width="0.15"/>
</svg>
